<?xml version="1.0" encoding="utf-8"?>
<!-- Generator: Adobe Illustrator 18.1.0, SVG Export Plug-In . SVG Version: 6.00 Build 0)  -->
<!DOCTYPE svg PUBLIC "-//W3C//DTD SVG 1.1//EN" "http://www.w3.org/Graphics/SVG/1.1/DTD/svg11.dtd">
<svg version="1.1" id="Layer_1" xmlns="http://www.w3.org/2000/svg" xmlns:xlink="http://www.w3.org/1999/xlink" x="0px" y="0px"
	 viewBox="0 0 141 29.9" enable-background="new 0 0 141 29.9" xml:space="preserve">
<g>
	<radialGradient id="SVGID_1_" cx="85.9681" cy="-9.9412" r="42.9832" gradientUnits="userSpaceOnUse">
		<stop  offset="0" style="stop-color:#F37B21"/>
		<stop  offset="1" style="stop-color:#F16222"/>
	</radialGradient>
	<polygon fill="url(#SVGID_1_)" points="141,29.6 52.7,29.6 56.9,24.9 52.7,20.1 141,20.1 137.4,24.9 	"/>
	<g>
		<g>
			<path fill="#FFFFFF" d="M64.3,22.2c0.2,0,0.3,0,0.4,0H65c0.1,0,0.2,0,0.4,0v3.3c0,0.7-0.2,1.2-0.6,1.6c-0.4,0.4-0.8,0.6-1.4,0.6
				c-0.6,0-1.1-0.2-1.5-0.5c-0.4-0.4-0.6-0.9-0.6-1.6v-3.4c0.2,0,0.4,0,0.6,0c0.2,0,0.4,0,0.5,0v3.4c0,0.3,0.1,0.6,0.3,0.8
				c0.2,0.2,0.4,0.3,0.7,0.3c0.4,0,0.7-0.2,0.8-0.7c0.1-0.2,0.1-0.4,0.1-0.6V22.2z"/>
			<path fill="#FFFFFF" d="M67.2,27.5c0-0.1,0-0.2,0-0.3v-5H68l2.1,3.3v-3.1c0-0.1,0-0.2,0-0.3h1.1c0,0.1,0,0.2,0,0.4v5h-0.8
				l-2.1-3.2v3.2H67.2z"/>
			<path fill="#FFFFFF" d="M73.1,22.2c0.3,0,0.4,0,0.5,0h0.3c0.1,0,0.3,0,0.3,0l0,5.3h-1.1V22.2z"/>
			<path fill="#FFFFFF" d="M76.5,26.8c-0.2-0.2-0.4-0.5-0.6-0.8c-0.1-0.3-0.2-0.7-0.2-1.1c0-0.4,0.1-0.8,0.2-1.1
				c0.1-0.3,0.3-0.6,0.6-0.9c0.2-0.3,0.5-0.5,0.9-0.6c0.3-0.2,0.7-0.2,1.2-0.2c0.7,0,1.4,0.2,1.9,0.7c0.5,0.5,0.8,1.2,0.8,2
				c0,0.8-0.3,1.5-0.8,2c-0.3,0.3-0.7,0.6-1.2,0.7c-0.2,0.1-0.5,0.1-0.8,0.1c-0.3,0-0.6-0.1-1-0.2C77,27.3,76.7,27.1,76.5,26.8z
				 M76.8,24.9c0,0.2,0,0.5,0.1,0.7c0.1,0.2,0.2,0.4,0.3,0.5c0.3,0.3,0.7,0.5,1.2,0.5c0.5,0,0.8-0.1,1.1-0.5
				c0.3-0.3,0.4-0.7,0.4-1.3c0-0.5-0.1-0.9-0.4-1.3c-0.3-0.4-0.7-0.5-1.2-0.5c-0.5,0-0.9,0.2-1.2,0.6C77,23.9,76.8,24.4,76.8,24.9z"
				/>
			<path fill="#FFFFFF" d="M82.6,27.5c0-0.1,0-0.2,0-0.3v-5h0.8l2.1,3.3v-3.1c0-0.1,0-0.2,0-0.3h1.1c0,0.1,0,0.2,0,0.4v5h-0.8
				l-2.1-3.2v3.2H82.6z"/>
		</g>
		<g>
			<path fill="#FFFFFF" d="M91.4,25.3c-0.1,0-0.2,0-0.3,0h-0.7v1.4h-0.7v-3.3c0,0,0.1,0,0.2,0l0.2,0c0.1,0,0.3,0,0.4,0
				c0.4,0,0.8,0,1.2,0c0,0.1,0,0.3,0,0.6c0,0,0,0,0,0.1l0,0c-0.1,0-0.2,0-0.4,0h-0.8v0.7h0.7c0.2,0,0.3,0,0.3,0L91.4,25.3z"/>
			<path fill="#FFFFFF" d="M92.5,26.3c-0.1-0.1-0.3-0.3-0.4-0.5C92,25.6,92,25.4,92,25.2c0-0.2,0-0.5,0.1-0.7
				c0.1-0.2,0.2-0.4,0.3-0.6c0.1-0.2,0.3-0.3,0.5-0.4c0.2-0.1,0.4-0.1,0.7-0.1c0.5,0,0.8,0.1,1.1,0.4c0.3,0.3,0.5,0.7,0.5,1.2
				c0,0.5-0.2,0.9-0.5,1.2c-0.2,0.2-0.5,0.3-0.7,0.4c-0.1,0-0.3,0.1-0.5,0.1c-0.2,0-0.4,0-0.6-0.1C92.8,26.6,92.6,26.5,92.5,26.3z
				 M92.7,25.1c0,0.2,0,0.3,0.1,0.4c0.1,0.1,0.1,0.2,0.2,0.3c0.2,0.2,0.4,0.3,0.7,0.3c0.3,0,0.5-0.1,0.7-0.3
				c0.2-0.2,0.3-0.5,0.3-0.8c0-0.3-0.1-0.6-0.3-0.8c-0.2-0.2-0.4-0.3-0.7-0.3c-0.3,0-0.5,0.1-0.7,0.3C92.7,24.5,92.7,24.8,92.7,25.1
				z"/>
			<path fill="#FFFFFF" d="M97,25.5c0,0-0.1,0-0.2,0c-0.1,0-0.1,0-0.2,0v1.3h-0.6v-3.3c0.2,0,0.5,0,0.8,0c0.5,0,0.8,0.1,1,0.3
				c0.2,0.2,0.3,0.4,0.3,0.8c0,0.3-0.1,0.5-0.3,0.7c-0.1,0.1-0.1,0.1-0.2,0.2l0.5,1.1c0.1,0.2,0.2,0.3,0.2,0.4l0,0
				c-0.2,0-0.4,0-0.7,0L97,25.5z M96.8,24c-0.1,0-0.2,0-0.2,0v0.9c0.1,0,0.2,0,0.3,0c0.1,0,0.2,0,0.3,0c0.1,0,0.1,0,0.2-0.1
				c0.1-0.1,0.2-0.2,0.2-0.4c0-0.2-0.1-0.3-0.2-0.4C97.2,24,97.1,24,96.8,24z"/>
		</g>
		<g>
			<path fill="#FFFFFF" d="M106,24.3c-0.1,0.1-0.1,0.3-0.1,0.6v1.2c0,0.4-0.2,0.7-0.6,1c-0.4,0.3-0.9,0.4-1.5,0.4
				c-0.8,0-1.5-0.3-1.9-0.8c-0.5-0.5-0.7-1.1-0.7-1.8c0-0.8,0.2-1.5,0.7-2c0.5-0.6,1.3-0.9,2.2-0.9c0.6,0,1.1,0.1,1.5,0.4l-0.1,1.2
				l0,0c-0.1-0.2-0.3-0.3-0.6-0.4c-0.3-0.1-0.5-0.1-0.8-0.1c-0.3,0-0.5,0-0.7,0.1c-0.2,0.1-0.4,0.2-0.5,0.4
				c-0.3,0.3-0.5,0.8-0.5,1.4c0,0.5,0.1,0.9,0.4,1.2c0.3,0.3,0.6,0.4,1.1,0.4c0.5,0,0.8-0.1,1-0.4c0.1-0.1,0.1-0.2,0.1-0.3v-0.7
				h-0.5c-0.3,0-0.4,0-0.5,0.1l0,0l0-1c0.1,0,0.4,0,0.9,0h0.5C105.5,24.3,105.8,24.3,106,24.3L106,24.3z"/>
			<path fill="#FFFFFF" d="M107.8,27.5c-0.2,0-0.5,0-0.8,0h-0.3l1.7-4.9c0.1-0.2,0.1-0.3,0.1-0.4c0,0,0-0.1,0-0.1l0,0
				c0.2,0,0.4,0,0.5,0c0.2,0,0.4,0,0.6,0l0,0c0,0,0,0,0,0c0,0.1,0,0.2,0.1,0.4l1.8,4.9c-0.1,0-0.1,0-0.2,0l-0.2,0
				c-0.1,0-0.1,0-0.2,0h-0.6l-0.4-1.1h-1.8L107.8,27.5z M109.7,25.4l-0.6-1.9l-0.6,1.9H109.7z"/>
			<path fill="#FFFFFF" d="M113.7,27.5c-0.1,0-0.4,0-0.7,0h-0.3v-5.3c0.2,0,0.4,0,0.6,0c0.2,0,0.3,0,0.4,0l1.3,2.3l1.3-2.3
				c0.1,0,0.2,0,0.5,0c0.2,0,0.4,0,0.6,0v5.3H117c-0.4,0-0.6,0-0.7,0v-3.6l-1.3,2.3l-1.3-2.1V27.5z"/>
			<path fill="#FFFFFF" d="M121.8,26.5c0.2,0,0.3,0,0.3,0l0,0l0,1h-3v-5.3c0.1,0,0.2,0,0.2,0l0.3,0c0.2,0,0.4,0,0.6,0
				c0.6,0,1.2,0,1.8,0c0,0.2,0,0.5,0,0.9c0,0,0,0.1,0,0.1l0,0c-0.1,0-0.3-0.1-0.6-0.1h-1.3v1h0.9c0.3,0,0.5,0,0.5,0l0,1
				c-0.1,0-0.3,0-0.5,0h-1v1.4H121.8z"/>
			<path fill="#FFFFFF" d="M125.4,25.4c-0.1,0-0.2,0-0.3,0c-0.1,0-0.2,0-0.4,0v2.1h-1.1v-5.3c0.4,0,0.8-0.1,1.4-0.1
				c0.7,0,1.3,0.1,1.7,0.4c0.4,0.3,0.5,0.7,0.5,1.3c0,0.4-0.2,0.8-0.5,1.1c-0.1,0.1-0.2,0.2-0.4,0.3l0.8,1.7
				c0.2,0.4,0.3,0.6,0.4,0.6l0,0c-0.3,0-0.7,0-1.2,0L125.4,25.4z M125.1,23c-0.1,0-0.3,0-0.4,0v1.5c0.1,0,0.3,0,0.5,0
				c0.2,0,0.3,0,0.4,0c0.1,0,0.2-0.1,0.3-0.1c0.2-0.1,0.3-0.4,0.3-0.6c0-0.3-0.1-0.5-0.3-0.6C125.7,23.1,125.5,23,125.1,23z"/>
			<path fill="#FFFFFF" d="M132,22.5l-0.1,1.2l0,0c-0.2-0.3-0.5-0.5-1-0.6c-0.1,0-0.3,0-0.4,0c-0.1,0-0.3,0-0.4,0
				c-0.1,0-0.2,0.1-0.2,0.1c-0.1,0.1-0.2,0.2-0.2,0.4c0,0.2,0.1,0.4,0.2,0.5c0.2,0.1,0.4,0.2,0.8,0.3c0.4,0,0.7,0.1,0.9,0.2
				c0.2,0.1,0.4,0.2,0.5,0.3c0.3,0.2,0.4,0.6,0.4,1c0,0.6-0.2,1-0.7,1.4c-0.4,0.3-0.9,0.4-1.4,0.4c-0.5,0-0.9-0.1-1.4-0.3
				c-0.1-0.1-0.3-0.1-0.4-0.2l0-1.3l0,0c0.3,0.6,0.9,0.9,1.6,0.9c0.5,0,0.9-0.1,1.1-0.4c0.1-0.1,0.1-0.2,0.1-0.3
				c0-0.1,0-0.2-0.1-0.3c0-0.1-0.1-0.1-0.2-0.2c-0.2-0.1-0.4-0.2-0.8-0.2c-0.4,0-0.7-0.1-0.9-0.2c-0.2-0.1-0.4-0.2-0.6-0.4
				c-0.2-0.3-0.4-0.6-0.4-1.1c0-0.5,0.2-0.9,0.5-1.1c0.3-0.3,0.8-0.4,1.4-0.4C131.1,22.1,131.6,22.2,132,22.5z"/>
		</g>
	</g>
	<g>
		<path fill="#FFFFFF" d="M119.7,6.4c-1.3-0.7-3-1.5-3-2.6c0-1.1,0.8-1.9,2.2-1.9c1.3,0,2.7,0.5,3.6,2.5h0.7l-0.3-2.2l0,0L122.7,1
			c-2.6-1-5.3-0.6-5.3-0.6l0,0c-2.4,0.3-3.9,1.9-3.9,4.1c0,1.8,1.3,3.4,3.2,4.5c2.5,1.3,3.8,2.2,3.8,3.5c0,1.5-1.1,2.2-2.9,2.2
			c-2,0-3.1-1.1-3.7-3.4h-0.8l0.6,4c0.7,0.2,2.3,1,4.3,1c3.4,0,5.8-2.3,5.8-4.5C124,9.4,122.6,8,119.7,6.4z"/>
		<path fill="#FFFFFF" d="M139.8,11.9c-1,1.4-1.3,1.9-3.1,1.9c0,0-2.1,0-2.3,0c-1.1,0-1.2-0.1-1.2-1.3V8.9h2.7c0.5,0,0.8,0.6,1,1.1
			h0.3c0.4-0.9,1-1.5,1.8-1.8V7.7c-0.9-0.4-1.5-1-1.8-1.8h-0.3c-0.2,0.4-0.5,1.1-1,1.1h-2.7v-4l4,0c1.4,0,1.6,0.1,2,1.7l0.7,0
			l-0.5-3.9h-12.2v0.5h0l0,0.3c0.1,0,0.2,0,0.4,0c1.7,0.2,1.9,0.6,1.9,2v9.7c0,1.4-0.2,1.8-1.9,2c-0.2,0-0.2,0-0.4,0l0,0.2h0v0.6
			h12.2l1.3-4.2L139.8,11.9z"/>
		<path fill="#FFFFFF" d="M89.1,1.5c0.2,0,0.3,0,0.4,0c0,0,0,0,0,0V0.7h-8.2v0.8c0.1,0,0.2,0,0.4,0c1.7,0,1.9,0.6,1.9,2v8.4
			c-0.6,1.3-1.9,2.2-3.1,2.2c-1.4,0-2.7-1-2.7-3.5v-7c0-1.4,0.2-2,1.9-2c0.2,0,0.3,0,0.4,0V0.7h-8.2v0.8c0.1,0,0.2,0,0.4,0
			c1.7,0,1.9,0.6,1.9,2v7.1c0,4,2.1,5.5,5,5.5c1.7,0,3.5-0.9,4.6-2.3v1.5v0.6v0.2h5.9v-0.8v0h-0.1c-0.1,0-0.2,0-0.3,0
			c-1.7-0.2-1.9-0.6-1.9-2V3.5C87.3,2.1,87.5,1.5,89.1,1.5z"/>
		<path fill="#FFFFFF" d="M67.1,11.2c-0.3,2.7-2,3.2-4.2,3.2c-3.3,0-5.7-2.2-5.9-5.8c-0.1-3.3,2.1-6.3,5.4-6.3c2.2,0,4,0.8,4.5,2.8
			h0.6l-0.1-2.8h0l-0.1-1.1c-1.5-0.5-3.4-0.7-4.5-0.7c-0.3,0-0.6,0-0.9,0c-5.2,0-8.9,3.5-8.9,8.3c0,5,4,7.8,8.9,7.8
			c1.9,0,4.5-0.6,5.5-1.3l0.4-3.9H67.1z"/>
		<path fill="#F16222" d="M110.5,16.5c0,0-0.1-0.2-0.4-0.5l-4.8-7.4c1.4-0.8,2.4-2.2,2.4-3.9c0-2.2-2-3.9-5.5-3.9
			c-0.1,0-0.1,0-0.2,0v0h-8.2v0.4c0,0.2,0,0.4,0,0.4c0,0,0.8,0,0.8,0c0.3,0,0.6,0.1,0.9,0.3c0.6,0.4,0.6,1.1,0.6,1.7v9.7
			c0,0.2,0,0.5,0,0.7c0,0.4-0.2,0.8-0.5,1c-0.1,0.1-0.2,0.1-0.4,0.2c-0.2,0.1-0.5,0.1-0.7,0.1c0,0-0.6,0.1-0.6,0c0,0,0,0.8,0,0.8
			l0,0v0h8.1v-0.5h0l0-0.3c-0.1,0-0.2,0-0.4,0c-1.7-0.2-1.9-0.6-1.9-2V9.4c0.4,0,1,0.1,1.6,0.1l7.1,6.3l0,0l0.9,0.8
			c0,0,0.1,0.1,0.2,0.2C109.9,17,110.6,16.8,110.5,16.5z M101,8.3c-0.4,0-1.2-0.1-1.2-0.1V7.8V3.2V2.4c0.2,0,0.6,0,1.5,0
			c1.9,0,2.7,1.4,2.7,2.9C104,7.1,102.6,8.3,101,8.3z"/>
	</g>
</g>
<g>
	<radialGradient id="SVGID_2_" cx="18.1421" cy="-24.5548" r="56.0397" gradientUnits="userSpaceOnUse">
		<stop  offset="0" style="stop-color:#F27321"/>
		<stop  offset="1" style="stop-color:#F16222"/>
	</radialGradient>
	<path fill="url(#SVGID_2_)" d="M44.5,21.7c-0.2-4.2-1-8.4-2.4-12.3c-0.7-1.9-1.5-4-2.7-5.7c-1-1.4-2.2-2.5-3.9-3
		c-1.6-0.5-4.6-1.1-6.2-0.3c-0.9,0.4-1.8,1.2-2.7,1.2c-1,0-4.4,0-4.4,0s-3.4,0-4.4,0c-0.9,0-1.8-0.8-2.7-1.2
		C13.6-0.4,10.7,0.2,9,0.7c-1.7,0.5-2.9,1.7-3.9,3c-1.2,1.7-2,3.8-2.7,5.7C1,13.3,0.2,17.5,0,21.7C-0.1,24.1,0,27.1,2,28.8
		c1.1,1,2.9,1.4,4.2,0.7c0.9-0.4,1.5-1.2,2.1-2c1.5-1.8,4-4.9,6.6-5.1c1-0.1,3.6-0.3,7.4-0.3s6.4,0.2,7.4,0.3c2.5,0.2,5,3.3,6.6,5.1
		c0.6,0.7,1.3,1.5,2.1,2c1.3,0.7,3.1,0.3,4.2-0.7C44.6,27.1,44.6,24.1,44.5,21.7z"/>
	<g>
		<rect x="18.8" y="9" fill="#FFFFFF" width="6.7" height="6.7"/>
		<rect x="29.5" y="9" fill="#FFFFFF" width="1.8" height="6.7"/>
		<rect x="32.5" y="9" fill="#FFFFFF" width="1.8" height="6.7"/>
		<polygon fill="#FFFFFF" points="10.3,8.8 15.4,12.4 10.3,16 		"/>
	</g>
</g>
</svg>
